<svg width="16" height="16" viewBox="0 0 16 16" fill="none" xmlns="http://www.w3.org/2000/svg">
<path d="M4.66699 11.342L7.60899 11.332L14.0303 4.97199C14.2823 4.71999 14.421 4.38532 14.421 4.02932C14.421 3.67332 14.2823 3.33865 14.0303 3.08665L12.973 2.02932C12.469 1.52532 11.5897 1.52799 11.0897 2.02732L4.66699 8.38865V11.342ZM12.0303 2.97199L13.0897 4.02732L12.025 5.08199L10.9677 4.02532L12.0303 2.97199ZM6.00033 8.94465L10.0203 4.96265L11.0777 6.01999L7.05833 10.0007L6.00033 10.004V8.94465Z" fill="#B3B3B3"/>
<path d="M3.33333 14H12.6667C13.402 14 14 13.402 14 12.6667V6.888L12.6667 8.22133V12.6667H5.43867C5.42133 12.6667 5.40333 12.6733 5.386 12.6733C5.364 12.6733 5.342 12.6673 5.31933 12.6667H3.33333V3.33333H7.898L9.23133 2H3.33333C2.598 2 2 2.598 2 3.33333V12.6667C2 13.402 2.598 14 3.33333 14Z" fill="#B3B3B3"/>
</svg>
